<svg width="48" height="50" viewBox="0 0 48 50" fill="none" xmlns="http://www.w3.org/2000/svg">
<path d="M36.2897 0.772949H11.4599C5.13077 0.772949 0 5.97944 0 12.4019V37.5981C0 44.0206 5.13077 49.2271 11.4599 49.2271H36.2897C42.6188 49.2271 47.7496 44.0206 47.7496 37.5981V12.4019C47.7496 5.97944 42.6188 0.772949 36.2897 0.772949Z" fill="url(#paint0_linear_401_25)"/>
<path fill-rule="evenodd" clip-rule="evenodd" d="M23.8746 40.5053C32.3135 40.5053 39.1545 33.5634 39.1545 25C39.1545 16.4366 32.3135 9.49463 23.8746 9.49463C15.4358 9.49463 8.59473 16.4366 8.59473 25C8.59473 33.5634 15.4358 40.5053 23.8746 40.5053ZM21.178 16.7913H26.5709V22.3213H21.1786V27.6785H26.5709V33.2085H21.178V27.8513H15.7858V22.3213H21.178V16.7913ZM26.5718 22.3213H31.9646V27.8513H26.5718V22.3213Z" fill="black"/>
<defs>
<linearGradient id="paint0_linear_401_25" x1="47.7496" y1="0.772949" x2="-0.699417" y2="48.5174" gradientUnits="userSpaceOnUse">
<stop stop-color="#A9FFE0"/>
<stop offset="1" stop-color="#86D5FF"/>
</linearGradient>
</defs>
</svg>
